# xmcd CD database file
#
# Track frame offsets:
#	150
#	20573
#	37074
#	54966
#	73941
#	92550
#	111115
#	129951
#	150056
#	172711
#	190239
#	207923
#	228708
#	248162
#
# Disc length: 3576 seconds
#
# Revision: 2
# Processed by: cddbd v1.5.2PL0 Copyright (c) Steve Scherf et al.
# Submitted via: CDex 1.51
#
DISCID=b00df60e
DTITLE=Leona Lewis - ZM-PA-128
DYEAR=1900
DGENRE=Blues
TTITLE0=Leona Lewis - Bleeding Love
TTITLE1=Leona Lewis - Whatever It takes
TTITLE2=Leona Lewis - Homeless
TTITLE3=Leona Lewis - Better In Time
TTITLE4=Leona Lewis - Yesterday
TTITLE5=Leona Lewis - Take A Bow
TTITLE6=Leona Lewis - I Will Be
TTITLE7=Leona Lewis - Angel
TTITLE8=Leona Lewis - Here I Am
TTITLE9=Leona Lewis - I'm You
TTITLE10=Leona Lewis - Best You Never Had
TTITLE11=Leona Lewis - First Time Ever I Saw Your Face
TTITLE12=Leona Lewis - Footprints In The Sand
TTITLE13=Leona Lewis - Moment Like This
EXTD=
EXTT0=
EXTT1=
EXTT2=
EXTT3=
EXTT4=
EXTT5=
EXTT6=
EXTT7=
EXTT8=
EXTT9=
EXTT10=
EXTT11=
EXTT12=
EXTT13=
PLAYORDER=
